<?xml version="1.0" encoding="UTF-8"?>
<!DOCTYPE svg PUBLIC "-//W3C//DTD SVG 1.1//EN" "http://www.w3.org/Graphics/SVG/1.1/DTD/svg11.dtd">
<svg xmlns="http://www.w3.org/2000/svg" version="1.1" width="200px" height="200px" style="shape-rendering:geometricPrecision; text-rendering:geometricPrecision; image-rendering:optimizeQuality; fill-rule:evenodd; clip-rule:evenodd" xmlns:xlink="http://www.w3.org/1999/xlink">
<g><path style="opacity:0.99" fill="#4b94d5" d="M 89.5,5.5 C 107.245,3.56505 123.578,7.39839 138.5,17C 156.497,17.4999 174.497,17.6666 192.5,17.5C 194.152,41.0549 186.652,61.0549 170,77.5C 166.211,115.287 145.711,137.787 108.5,145C 72.3076,147.164 47.1409,131.664 33,98.5C 23.6117,64.3274 33.1117,36.8274 61.5,16C 70.3307,10.7836 79.664,7.28365 89.5,5.5 Z"/></g>
<g><path style="opacity:1" fill="#090f48" d="M 171.5,28.5 C 175.167,28.5 178.833,28.5 182.5,28.5C 182.5,29.5 182.5,30.5 182.5,31.5C 177.548,51.9061 167.548,69.4061 152.5,84C 149.14,86.5457 145.474,88.3791 141.5,89.5C 137.507,115.955 122.173,126.788 95.5,122C 80.6489,117.815 70.1489,108.649 64,94.5C 61.8282,85.1084 59.4948,75.7751 57,66.5C 53.9652,60.6317 49.4652,56.2983 43.5,53.5C 55.5942,46.9182 68.2609,45.7515 81.5,50C 89.032,55.5355 95.1987,62.3688 100,70.5C 108.289,81.2296 119.122,86.3963 132.5,86C 133.766,85.6905 134.933,85.1905 136,84.5C 139.088,64.2631 134.922,45.7631 123.5,29C 127.871,28.1725 132.205,28.3391 136.5,29.5C 143.074,46.273 145.74,63.6063 144.5,81.5C 160.106,67.2883 169.106,49.6217 171.5,28.5 Z"/></g>
<g><path style="opacity:1" fill="#0a1049" d="M 149.5,28.5 C 153.5,28.5 157.5,28.5 161.5,28.5C 161.218,43.9613 157.051,58.2947 149,71.5C 150.792,63.6728 151.625,55.6728 151.5,47.5C 151.636,41.0539 150.969,34.7206 149.5,28.5 Z"/></g>
<g><path style="opacity:1" fill="#468bcb" d="M 68.5,54.5 C 75.3694,54.5377 77.8694,57.871 76,64.5C 72.2544,68.3927 68.5877,68.3927 65,64.5C 63.5812,60.0823 64.7478,56.7489 68.5,54.5 Z"/></g>
<g><path style="opacity:1" fill="#0d154f" d="M 68.5,58.5 C 74.1755,58.8597 74.8421,60.8597 70.5,64.5C 67.6095,63.1627 66.9428,61.1627 68.5,58.5 Z"/></g>
<g><path style="opacity:0.866" fill="#272f3d" d="M 50.5,154.5 C 54.1817,154.335 57.8484,154.501 61.5,155C 63.8477,155.346 65.6811,156.513 67,158.5C 67.6667,161.833 67.6667,165.167 67,168.5C 66.5348,169.931 65.7014,171.097 64.5,172C 67.4396,173.946 68.7729,176.78 68.5,180.5C 68.6348,185.073 66.6348,188.239 62.5,190C 58.5138,190.499 54.5138,190.666 50.5,190.5C 50.5,178.5 50.5,166.5 50.5,154.5 Z M 56.5,159.5 C 61.1514,160.174 62.6514,162.841 61,167.5C 59.8904,169.037 58.3904,169.703 56.5,169.5C 56.5,166.167 56.5,162.833 56.5,159.5 Z M 56.5,174.5 C 60.7406,173.909 62.4073,175.742 61.5,180C 62.3267,183.833 60.8267,186 57,186.5C 56.5012,182.514 56.3345,178.514 56.5,174.5 Z"/></g>
<g><path style="opacity:0.867" fill="#27303d" d="M 71.5,154.5 C 73.8333,154.5 76.1667,154.5 78.5,154.5C 78.5,166.5 78.5,178.5 78.5,190.5C 76.1667,190.5 73.8333,190.5 71.5,190.5C 71.5,178.5 71.5,166.5 71.5,154.5 Z"/></g>
<g><path style="opacity:0.905" fill="#272f3c" d="M 87.5,154.5 C 90.5184,154.335 93.5184,154.502 96.5,155C 98.0488,156.214 99.2155,157.714 100,159.5C 100.667,167.833 100.667,176.167 100,184.5C 97.3361,190.632 92.8361,192.466 86.5,190C 84.5125,188.681 83.3459,186.848 83,184.5C 82.3333,176.5 82.3333,168.5 83,160.5C 83.5985,157.746 85.0985,155.746 87.5,154.5 Z M 90.5,159.5 C 91.5,159.5 92.5,159.5 93.5,159.5C 94.5693,167.465 94.736,175.465 94,183.5C 92.951,185.107 91.451,185.773 89.5,185.5C 87.8763,176.699 88.2096,168.033 90.5,159.5 Z"/></g>
<g><path style="opacity:0.857" fill="#272f3c" d="M 104.5,154.5 C 106.604,154.201 108.604,154.534 110.5,155.5C 112.568,161.538 114.735,167.538 117,173.5C 117.5,167.175 117.666,160.842 117.5,154.5C 119.5,154.5 121.5,154.5 123.5,154.5C 123.5,166.5 123.5,178.5 123.5,190.5C 121.396,190.799 119.396,190.466 117.5,189.5C 115.235,183.872 113.069,178.206 111,172.5C 110.501,178.491 110.334,184.491 110.5,190.5C 108.5,190.5 106.5,190.5 104.5,190.5C 104.5,178.5 104.5,166.5 104.5,154.5 Z"/></g>
<g><path style="opacity:0.873" fill="#272f3c" d="M 128.5,154.5 C 130.5,154.5 132.5,154.5 134.5,154.5C 134.5,164.833 134.5,175.167 134.5,185.5C 136.833,185.5 139.167,185.5 141.5,185.5C 141.5,187.167 141.5,188.833 141.5,190.5C 137.167,190.5 132.833,190.5 128.5,190.5C 128.5,178.5 128.5,166.5 128.5,154.5 Z"/></g>
<g><path style="opacity:0.859" fill="#272f3c" d="M 141.5,154.5 C 143.604,154.201 145.604,154.534 147.5,155.5C 148.715,159.979 150.215,164.312 152,168.5C 153.012,164.117 154.179,159.784 155.5,155.5C 157.396,154.534 159.396,154.201 161.5,154.5C 159.645,162.236 157.478,169.902 155,177.5C 154.501,181.821 154.334,186.154 154.5,190.5C 152.5,190.5 150.5,190.5 148.5,190.5C 148.666,186.154 148.499,181.821 148,177.5C 145.522,169.902 143.355,162.236 141.5,154.5 Z"/></g>
</svg>
